# xmcd
#
# Track frame offsets:
#	150
#	10596
#	23676
#	33606
#	42912
#	54975
#	65066
#	74565
#	86660
#	99871
#	110834
#	123244
#	129514
#	139770
#	152312
#	163189
#
# Disc length: 2310 seconds
#
# Revision: 1
# Processed by: cddbd v1.5.2PL0 Copyright (c) Steve Scherf et al.
# Submitted via: audiograbber 1.83.01
#
DISCID=d2090410
DTITLE=Mickey Gilley - I Miss You So
DYEAR=2007
DGENRE=Country
TTITLE0=Forgive
TTITLE1=Turn Around
TTITLE2=Night After Night
TTITLE3=Suzie Q
TTITLE4=Breathless
TTITLE5=Lonely Wine
TTITLE6=I'm Gonna Put My Love In The Want Ads
TTITLE7=You Can Count Me Missing
TTITLE8=That Heart Belongs To Me
TTITLE9=It's Just A Matter Of Making Up My Mind
TTITLE10=Just Out Of Reach
TTITLE11=The Boy Who Didn't Pass
TTITLE12=I Miss You So (Mickey Gilley)
TTITLE13=Still Care About You
TTITLE14=Grapevine
TTITLE15=That's How Its Got To Be
EXTD=
EXTT0=
EXTT1=
EXTT2=
EXTT3=
EXTT4=
EXTT5=
EXTT6=
EXTT7=
EXTT8=
EXTT9=
EXTT10=
EXTT11=
EXTT12=
EXTT13=
EXTT14=
EXTT15=
PLAYORDER=
